<svg width="69" height="77" viewBox="0 0 69 77" fill="none" xmlns="http://www.w3.org/2000/svg">
<path d="M66.5775 42.6646L54.0292 49.7808L42.7744 38.574L54.1188 27.2773L66.5775 34.3421C67.3128 34.7588 67.9245 35.3635 68.3501 36.0946C68.7757 36.8257 69 37.657 69 38.5034C69 39.3498 68.7757 40.181 68.3501 40.9121C67.9245 41.6432 67.3128 42.248 66.5775 42.6646ZM0.358619 2.96433C0.121003 3.54234 -0.000847182 4.16154 4.43329e-06 4.78668V72.2169C4.43329e-06 72.9131 0.144091 73.5612 0.397042 74.1419L36.1144 38.5708L0.358619 2.96433ZM39.4444 35.2565L49.8763 24.8678L7.12427 0.625427C6.20791 0.0977649 5.14066 -0.104585 4.09526 0.0511298L39.4444 35.2565ZM39.4444 41.8882L4.22333 76.9653C5.1775 77.0808 6.18291 76.9139 7.12427 76.3781L49.7866 52.1871L39.4444 41.8882Z" fill="#202630" fill-opacity="0.8"/>
</svg>
