<svg width="32" height="33" viewBox="0 0 32 33" fill="none" xmlns="http://www.w3.org/2000/svg">
<path d="M26.0508 31.6383C24.0501 33.3365 21.8655 33.0684 19.7627 32.264C17.5374 31.4417 15.4958 31.406 13.1479 32.264C10.208 33.3722 8.6564 33.0505 6.90063 31.6383C-3.06238 22.6471 -1.59243 8.95472 9.71803 8.45421C12.4742 8.57934 14.3933 9.77697 16.0062 9.88422C18.4152 9.45522 20.7223 8.22183 23.2947 8.38271C26.3775 8.59721 28.7049 9.66972 30.2361 11.6002C23.8663 14.9429 25.3771 22.2896 31.2161 24.3453C30.0524 27.0265 28.5416 29.6899 26.0304 31.6562L26.0508 31.6383ZM15.802 8.34696C15.4958 4.36079 19.1911 1.07175 23.4376 0.75C24.0296 5.3618 18.6602 8.79384 15.802 8.34696Z" fill="white"/>
</svg>
