<svg width="40" height="40" viewBox="0 0 40 40" fill="none" xmlns="http://www.w3.org/2000/svg">
<path d="M38.0743 26.8919L28.6522 22.6698L28.6262 22.6578C28.1371 22.4486 27.6035 22.3646 27.0737 22.4135C26.544 22.4624 26.0348 22.6426 25.5922 22.9378C25.5401 22.9722 25.49 23.0096 25.4422 23.0498L20.5742 27.1999C17.4901 25.7018 14.3061 22.5418 12.8081 19.4978L16.9641 14.5557C17.0041 14.5057 17.0421 14.4557 17.0781 14.4017C17.367 13.9603 17.5423 13.4544 17.5883 12.9289C17.6344 12.4034 17.5498 11.8746 17.3421 11.3897V11.3657L13.1081 1.92761C12.8336 1.29414 12.3616 0.766433 11.7625 0.423276C11.1634 0.0801198 10.4694 -0.0600834 9.78409 0.0235955C7.07401 0.380212 4.58641 1.71115 2.7859 3.76782C0.985399 5.8245 -0.0048819 8.46626 1.80974e-05 11.1997C1.80974e-05 27.0799 12.9201 40 28.8002 40C31.5337 40.0049 34.1754 39.0146 36.2321 37.2141C38.2887 35.4136 39.6197 32.926 39.9763 30.2159C40.0601 29.5308 39.9202 28.837 39.5774 28.2379C39.2347 27.6389 38.7074 27.1667 38.0743 26.8919ZM28.8002 36.7999C22.0129 36.7925 15.5057 34.093 10.7063 29.2936C5.90699 24.4943 3.20745 17.987 3.20004 11.1997C3.19252 9.24666 3.89615 7.35766 5.17953 5.88547C6.46291 4.41327 8.23828 3.45856 10.1741 3.19963C10.1733 3.20761 10.1733 3.21565 10.1741 3.22363L14.3741 12.6237L10.2401 17.5718C10.1981 17.62 10.16 17.6715 10.1261 17.7258C9.82512 18.1876 9.64856 18.7194 9.61352 19.2695C9.57847 19.8196 9.68614 20.3695 9.92609 20.8658C11.7381 24.5718 15.4721 28.2779 19.2182 30.0879C19.7181 30.3256 20.2711 30.4295 20.8233 30.3896C21.3754 30.3496 21.9077 30.1671 22.3682 29.8599C22.4195 29.8253 22.4689 29.7879 22.5162 29.7479L27.3782 25.5998L36.7783 29.8099H36.8003C36.5445 31.7484 35.5912 33.5274 34.1188 34.8139C32.6463 36.1005 30.7556 36.8065 28.8002 36.7999Z" fill="white" fill-opacity="0.8"/>
</svg>
