<svg width="41" height="45" viewBox="0 0 41 45" fill="none" xmlns="http://www.w3.org/2000/svg">
<path d="M1.01956 34.7615C0.72957 34.9765 0.668023 35.3866 0.891588 35.67C3.09049 38.458 5.93621 40.6725 9.18601 42.1192C12.6351 43.6545 16.4223 44.2728 20.1805 43.9141C23.9388 43.5553 27.5406 42.2317 30.6369 40.0716C33.7332 37.9115 36.219 34.9881 37.8532 31.5848C39.4874 28.1815 40.2147 24.4137 39.9646 20.6467C39.7145 16.8796 38.4954 13.2411 36.4255 10.0838C34.3557 6.92641 31.5052 4.35735 28.1505 2.62558C24.9896 0.99385 21.482 0.157624 17.9313 0.184668C17.5704 0.187418 17.2888 0.491837 17.3023 0.852586L17.3649 2.52255C17.3784 2.8833 17.6819 3.16361 18.0429 3.16256C21.0806 3.15367 24.0793 3.87584 26.7843 5.27218C29.683 6.76859 32.1461 8.98849 33.9346 11.7167C35.7232 14.4449 36.7766 17.589 36.9927 20.844C37.2088 24.0991 36.5804 27.3548 35.1683 30.2955C33.7561 33.2363 31.6082 35.7624 28.9328 37.6289C26.2573 39.4954 23.145 40.6391 19.8975 40.9491C16.65 41.2591 13.3007 40.7818 10.3205 39.4551C7.53946 38.2172 5.1009 36.3284 3.20852 33.9521C2.98364 33.6697 2.57514 33.6082 2.28515 33.8232L1.01956 34.7615Z" fill="#FFDB00"/>
</svg>
