<svg width="20" height="32" viewBox="0 0 20 32" fill="none" xmlns="http://www.w3.org/2000/svg">
<path d="M11.9475 1.24486L8.20272 1.22374C8.16789 1.22355 8.13928 1.24895 8.13882 1.28049L8.13799 1.33759C8.13754 1.36913 8.1654 1.39485 8.20023 1.39505L11.945 1.41617C11.9799 1.41636 12.0085 1.39096 12.0089 1.35942L12.0098 1.30232C12.0102 1.27078 11.9823 1.24506 11.9475 1.24486Z" fill="#409C89" stroke="#FFDB00" stroke-width="1.63542" stroke-miterlimit="10"/>
<path d="M15.8532 4.25234L4.36656 4.18757C2.97325 4.17971 1.82892 5.19596 1.81063 6.45743L1.49673 28.1063C1.47844 29.3678 2.59311 30.3968 3.98642 30.4046L15.4731 30.4694C16.8664 30.4772 18.0107 29.461 18.029 28.1995L18.3429 6.55065C18.3612 5.28918 17.2465 4.26019 15.8532 4.25234Z" stroke="#FFDB00" stroke-width="1.9625" stroke-miterlimit="10"/>
<path d="M11.3099 8.50081C11.2928 8.59352 11.2836 8.68626 11.2508 8.77174C11.1354 9.11373 11.0201 9.45572 10.8969 9.79767C10.6172 10.5956 10.3376 11.3935 10.058 12.1914C9.83579 12.8326 9.60573 13.4738 9.38366 14.1078C9.32588 14.286 9.25244 14.4569 9.21822 14.6423C9.1674 14.8847 9.21938 15.1063 9.42166 15.293C9.59283 15.451 9.80527 15.4808 10.0259 15.4892C11.3189 15.4965 12.6118 15.5037 13.9126 15.5111C14.0545 15.5119 14.1963 15.5198 14.3295 15.5777C14.5253 15.6716 14.6172 15.8577 14.567 16.0573C14.5332 16.2141 14.4446 16.3421 14.356 16.4701C14.0663 16.8754 13.7844 17.2878 13.5025 17.6931C13.3255 17.942 13.1562 18.198 12.9791 18.4468C12.7054 18.8379 12.4315 19.2361 12.1578 19.6272C11.9886 19.876 11.8194 20.1249 11.6424 20.3738C11.4491 20.6511 11.2559 20.9284 11.0625 21.2128C10.8933 21.4617 10.7163 21.7106 10.5471 21.9595C10.2732 22.3577 9.9995 22.7487 9.72566 23.1469C9.54849 23.4029 9.37132 23.6589 9.19405 23.922C9.00889 24.1851 8.82373 24.4482 8.64636 24.7184C8.46919 24.9744 8.30001 25.2233 8.12284 25.4793C8.05044 25.5788 7.97803 25.6783 7.90573 25.7707C7.87368 25.8062 7.82607 25.8274 7.79412 25.8558L7.77047 25.8556C7.77119 25.8057 7.76383 25.7699 7.77223 25.7343C7.86288 25.4635 7.95353 25.1928 8.05207 24.9221C8.23276 24.4234 8.42922 23.9248 8.61789 23.4191C8.8884 22.7068 9.15093 22.0016 9.42145 21.2892C9.61811 20.7764 9.81488 20.2564 10.0037 19.7435C10.135 19.3873 10.2741 19.0383 10.3897 18.6749C10.5219 18.2616 10.2756 17.8462 9.75566 17.8147C9.66894 17.8143 9.59021 17.8067 9.50349 17.8062C8.4786 17.8004 7.45371 17.7946 6.42881 17.7888C6.32632 17.7883 6.21595 17.7876 6.11388 17.7585C5.91751 17.7074 5.77726 17.5924 5.73264 17.4066C5.70307 17.2708 5.72869 17.1353 5.80141 17.0144C5.88221 16.8792 5.96291 16.7512 6.04371 16.616C6.30189 16.2106 6.56806 15.798 6.82624 15.3926C6.99563 15.1294 7.15703 14.8734 7.32642 14.6102C7.57651 14.219 7.8266 13.8278 8.07669 13.4366C8.23809 13.1805 8.39949 12.9245 8.56878 12.6684C8.81887 12.2772 9.06906 11.8789 9.31915 11.4877C9.48055 11.2316 9.64994 10.9685 9.81134 10.7124C10.0614 10.3212 10.3116 9.92286 10.5617 9.53166C10.7473 9.24003 10.9408 8.94131 11.1264 8.64969C11.1588 8.59276 11.1859 8.54198 11.226 8.49224C11.2418 8.49233 11.31 8.52303 11.3098 8.5373L11.3099 8.50081Z" fill="#FBDB3C" stroke="#FFDB00" stroke-width="0.490625" stroke-miterlimit="10"/>
</svg>
