<svg width="10" height="16" viewBox="0 0 10 16" fill="none" xmlns="http://www.w3.org/2000/svg">
<path d="M5.82785 0.495372L3.96785 0.521052C3.95055 0.521291 3.93659 0.534185 3.93666 0.549851L3.9368 0.578218C3.93688 0.593885 3.95097 0.606392 3.96827 0.606153L5.82827 0.580473C5.84558 0.580234 5.85954 0.56734 5.85946 0.551673L5.85932 0.523306C5.85924 0.50764 5.84515 0.495133 5.82785 0.495372Z" fill="#409C89" stroke="#FFDB00" stroke-width="0.81236" stroke-miterlimit="10"/>
<path d="M7.79626 1.95129L2.09095 2.03006C1.3989 2.03962 0.840403 2.55538 0.843502 3.18204L0.896691 13.9367C0.899791 14.5633 1.46331 15.0636 2.15536 15.0541L7.86067 14.9753C8.55272 14.9657 9.11122 14.45 9.10812 13.8233L9.05493 3.06867C9.05183 2.44201 8.4883 1.94174 7.79626 1.95129Z" stroke="#FFDB00" stroke-width="0.974832" stroke-miterlimit="10"/>
<path d="M5.58178 4.10525C5.57418 4.15145 5.57049 4.1976 5.55504 4.24037C5.50106 4.41133 5.44708 4.58229 5.38918 4.7533C5.25801 5.15228 5.12684 5.55125 4.99567 5.95023C4.89152 6.27082 4.78345 6.59146 4.67929 6.9085C4.65232 6.99753 4.6175 7.08311 4.60229 7.17552C4.57939 7.29641 4.60734 7.40595 4.70961 7.49674C4.79614 7.57356 4.90194 7.58628 5.0116 7.58831C5.65379 7.57945 6.29598 7.57058 6.94209 7.56166C7.01257 7.56069 7.08307 7.56326 7.14978 7.59071C7.24791 7.63545 7.29535 7.727 7.27235 7.82661C7.25707 7.90483 7.21431 7.96925 7.17155 8.03367C7.03158 8.23773 6.89555 8.44529 6.7595 8.64929C6.67396 8.77459 6.59236 8.90338 6.50683 9.02867C6.37466 9.22553 6.2425 9.42594 6.11033 9.6228C6.02871 9.74804 5.94709 9.87328 5.86156 9.99858C5.76826 10.1382 5.67497 10.2778 5.58169 10.4209C5.50007 10.5461 5.41454 10.6714 5.33292 10.7967C5.20077 10.9971 5.06859 11.1939 4.93644 11.3943C4.85092 11.5232 4.76541 11.652 4.67991 11.7844C4.59049 11.9168 4.50108 12.0493 4.4156 12.1852C4.33008 12.3141 4.24846 12.4393 4.16295 12.5681C4.12795 12.6183 4.09295 12.6684 4.05794 12.715C4.04236 12.7329 4.01892 12.7439 4.00333 12.7583L3.99158 12.7585C3.99146 12.7336 3.98745 12.716 3.99128 12.6982C4.03369 12.5628 4.0761 12.4275 4.12242 12.2921C4.20734 12.0427 4.30009 11.7932 4.38891 11.5402C4.51638 11.1838 4.63995 10.8311 4.76741 10.4747C4.86013 10.2181 4.95283 9.95793 5.04163 9.70138C5.10341 9.52323 5.16912 9.34856 5.22304 9.16696C5.28468 8.96044 5.15835 8.75651 4.89984 8.74589C4.85677 8.74649 4.81759 8.74348 4.77452 8.74408C4.26547 8.7511 3.75641 8.75813 3.24736 8.76516C3.19645 8.76586 3.14163 8.76662 3.09066 8.75314C2.99264 8.72967 2.92187 8.67391 2.89792 8.58204C2.88193 8.51488 2.89334 8.44735 2.92829 8.38658C2.96711 8.31867 3.00595 8.25431 3.04478 8.18639C3.16908 7.98255 3.29729 7.7751 3.42159 7.57126C3.50318 7.43893 3.58086 7.31019 3.66244 7.17786C3.78287 6.98116 3.90329 6.78446 4.02372 6.58776C4.1014 6.45903 4.17909 6.3303 4.26069 6.20151C4.38111 6.00481 4.50152 5.80457 4.62195 5.60787C4.69963 5.47914 4.78121 5.3468 4.8589 5.21807C4.97932 5.02137 5.09973 4.82113 5.22016 4.62443C5.3095 4.4778 5.40274 4.32758 5.49209 4.18095C5.50761 4.15237 5.52058 4.12689 5.54004 4.1018C5.54787 4.10169 5.58203 4.11628 5.58207 4.12337L5.58178 4.10525Z" fill="#FBDB3C" stroke="#FFDB00" stroke-width="0.243708" stroke-miterlimit="10"/>
</svg>
