<svg width="78" height="128" viewBox="0 0 78 128" fill="none" xmlns="http://www.w3.org/2000/svg">
<path d="M47.0689 3.66801L31.7329 3.58153C31.5902 3.58073 31.4731 3.68478 31.4712 3.81393L31.4678 4.04778C31.466 4.17693 31.5801 4.28228 31.7227 4.28308L47.0587 4.36956C47.2013 4.37036 47.3185 4.26632 47.3204 4.13717L47.3238 3.90332C47.3256 3.77417 47.2115 3.66882 47.0689 3.66801Z" fill="#409C89" stroke="#FFDB00" stroke-width="6.69748" stroke-miterlimit="10"/>
<path d="M63.0592 15.9856L16.0181 15.7204C10.3121 15.6882 5.6258 19.85 5.55089 25.0161L4.26538 113.674C4.19047 118.84 8.75536 123.054 14.4613 123.086L61.5024 123.352C67.2084 123.384 71.8947 119.222 71.9696 114.056L73.2551 25.3979C73.3301 20.2318 68.7652 16.0178 63.0592 15.9856Z" stroke="#FFDB00" stroke-width="8.03698" stroke-miterlimit="10"/>
<path d="M44.4553 33.3839C44.3852 33.7636 44.3474 34.1434 44.2132 34.4934C43.7408 35.894 43.2685 37.2945 42.7638 38.6949C41.6186 41.9626 40.4734 45.2303 39.3282 48.498C38.4184 51.1239 37.4762 53.7496 36.5667 56.3462C36.3301 57.0757 36.0294 57.7757 35.8892 58.5349C35.6811 59.5277 35.894 60.4351 36.7224 61.1999C37.4234 61.847 38.2934 61.9688 39.197 62.0031C44.4919 62.033 49.7869 62.0629 55.1141 62.0929C55.6952 62.0962 56.276 62.1287 56.8215 62.3656C57.6231 62.7502 57.9995 63.5124 57.7939 64.3298C57.6555 64.9721 57.2927 65.4963 56.9299 66.0204C55.7434 67.6801 54.5888 69.3691 53.4347 71.0289C52.7095 72.048 52.0163 73.0965 51.2911 74.1156C50.1701 75.7171 49.0486 77.3478 47.9276 78.9494C47.2347 79.9686 46.5419 80.9879 45.8168 82.007C45.0254 83.1426 44.234 84.2783 43.4421 85.4432C42.7493 86.4624 42.0242 87.4815 41.3313 88.5008C40.2098 90.1315 39.0888 91.733 37.9673 93.3638C37.2418 94.4121 36.5162 95.4604 35.7902 96.538C35.032 97.6154 34.2737 98.6927 33.5473 99.7995C32.8217 100.848 32.1289 101.867 31.4033 102.915C31.1068 103.323 30.8103 103.731 30.5142 104.109C30.383 104.254 30.188 104.341 30.0571 104.457L29.9603 104.457C29.9633 104.252 29.9331 104.106 29.9675 103.96C30.3387 102.851 30.71 101.742 31.1135 100.634C31.8535 98.5914 32.658 96.5496 33.4307 94.4783C34.5385 91.5612 35.6137 88.6732 36.7215 85.7561C37.5269 83.6558 38.3327 81.5263 39.1058 79.4258C39.6436 77.9672 40.2132 76.5379 40.6868 75.0497C41.228 73.3572 40.2194 71.656 38.0902 71.527C37.7351 71.525 37.4126 71.494 37.0575 71.492C32.8603 71.4683 28.6631 71.4446 24.4658 71.421C24.0461 71.4186 23.5941 71.4161 23.1761 71.2968C22.3719 71.0876 21.7975 70.6166 21.6148 69.8555C21.4937 69.2994 21.5987 68.7446 21.8964 68.2493C22.2274 67.6957 22.5578 67.1714 22.8888 66.6178C23.9461 64.9574 25.0361 63.268 26.0934 61.6077C26.7871 60.53 27.4481 59.4813 28.1418 58.4035C29.166 56.8015 30.1902 55.1994 31.2143 53.5973C31.8753 52.5487 32.5363 51.5 33.2296 50.4515C34.2538 48.8494 35.2784 47.2181 36.3026 45.616C36.9636 44.5674 37.6572 43.4896 38.3182 42.4409C39.3424 40.8389 40.367 39.2076 41.3912 37.6055C42.1512 36.4112 42.9438 35.1879 43.7038 33.9936C43.8363 33.7605 43.9473 33.5525 44.1117 33.3488C44.1763 33.3492 44.4556 33.4749 44.4547 33.5333L44.4553 33.3839Z" fill="#FBDB3C" stroke="#FFDB00" stroke-width="2.00924" stroke-miterlimit="10"/>
</svg>
