<svg width="40" height="38" viewBox="0 0 40 38" fill="none" xmlns="http://www.w3.org/2000/svg">
<path fill-rule="evenodd" clip-rule="evenodd" d="M8.6144 23.0159C8.69889 23.0465 8.78576 23.0687 8.87395 23.0821C9.43025 24.507 9.98343 25.9332 10.5335 27.3609C11.5225 29.9298 12.5194 32.5757 12.7377 33.3366C13.011 34.2727 13.2981 34.9096 13.6127 35.3456C13.7759 35.5679 13.9627 35.7645 14.1829 35.9141C14.2976 35.9921 14.4203 36.0552 14.5486 36.1022C15.1778 36.3586 15.752 36.2518 16.1118 36.1214C16.3229 36.0431 16.5239 35.9353 16.7095 35.8008L16.7194 35.7966L22.276 32.0308L28.6959 37.3781C28.7903 37.4572 28.8925 37.5234 29.0026 37.5769C29.7734 37.9402 30.5206 38.0684 31.2245 37.9659C31.9245 37.859 32.481 37.5405 32.8959 37.1793C33.3723 36.762 33.7521 36.2291 34.0048 35.6234L34.0225 35.5764L34.0284 35.5593L34.0324 35.5508V35.5465L34.0343 35.5444C34.0685 35.4524 34.0948 35.3573 34.113 35.2601L39.9725 3.14817C39.991 3.04538 40.0002 2.94087 40 2.83613C40 1.89575 39.6736 1.00025 38.9087 0.459526C38.252 -0.00425389 37.5225 -0.0256265 37.0604 0.0128437C36.5649 0.0555884 36.1048 0.188097 35.7961 0.294959C35.6233 0.354491 35.4528 0.421511 35.2849 0.495859L35.2633 0.506545L2.39902 14.5183L2.39509 14.5204C2.2839 14.5648 2.17436 14.614 2.06672 14.6679C1.80612 14.7952 1.55613 14.9468 1.31954 15.121C0.873197 15.4522 -0.155162 16.3627 0.0198356 17.8673C0.157474 19.0641 0.912522 19.8015 1.3746 20.1563C1.62628 20.3508 1.86616 20.4897 2.04313 20.5816C2.12178 20.6243 2.29088 20.697 2.36363 20.7312L2.38329 20.7376L8.6144 23.0159ZM36.4135 3.45593H36.4096C36.3927 3.4641 36.3756 3.47194 36.3585 3.47944L3.45491 17.5104C3.43798 17.5178 3.42094 17.5249 3.40379 17.5318L3.38412 17.5382C3.32402 17.5638 3.26497 17.5924 3.20716 17.6237C3.26189 17.6577 3.31834 17.6884 3.37626 17.7156L9.55428 19.9767C9.66468 20.0172 9.77028 20.0717 9.86888 20.1392L30.2729 7.15548L30.2925 7.14479C30.3718 7.09244 30.4531 7.04395 30.5363 6.99946C30.6779 6.92038 30.904 6.80497 31.1596 6.71948C31.3366 6.65964 31.8616 6.4908 32.4279 6.68956C32.7283 6.79247 32.9959 6.98512 33.2004 7.2455C33.4048 7.50589 33.5378 7.82352 33.5841 8.16212C33.6573 8.45866 33.6593 8.77066 33.59 9.06831C33.4523 9.65604 33.0748 10.1134 32.7307 10.4639C32.4358 10.7631 28.6094 14.7726 24.8361 18.7307L19.6983 24.1166L18.7839 25.0783L30.3299 34.7002C30.4857 34.7712 30.655 34.8006 30.8234 34.7856C30.9083 34.7731 30.9881 34.7346 31.0535 34.6745C31.1332 34.6014 31.2016 34.5148 31.256 34.418L31.2599 34.4159L36.9424 3.26999C36.7634 3.31679 36.5879 3.37823 36.4174 3.45379L36.4135 3.45593ZM19.7769 29.9448L17.4724 28.0256L16.914 31.8833L19.7769 29.9448ZM15.3587 24.217L17.6494 21.8126L22.7873 16.4225L24.7005 14.4178L11.8804 22.5756L11.9492 22.7509C12.7577 24.8271 13.5574 26.9073 14.348 28.9916L14.9045 25.1446C14.9549 24.7878 15.115 24.4622 15.3587 24.217Z" fill="white" fill-opacity="0.8"/>
</svg>
