<svg width="20" height="22" viewBox="0 0 20 22" fill="none" xmlns="http://www.w3.org/2000/svg">
<path d="M0.694218 17.3444C0.552277 17.454 0.525672 17.6583 0.639439 17.7969C1.75842 19.1602 3.1931 20.2326 4.82103 20.9196C6.54878 21.6488 8.43561 21.9193 10.2986 21.7049C12.1617 21.4904 13.9377 20.7983 15.4545 19.6956C16.9714 18.5929 18.1777 17.117 18.9564 15.411C19.7352 13.705 20.06 11.8268 19.8994 9.95837C19.7388 8.08994 19.0982 6.29469 18.0398 4.74662C16.9813 3.19856 15.5409 1.9502 13.858 1.12254C12.2725 0.342693 10.5224 -0.0387306 8.75928 0.00899152C8.58003 0.0138437 8.44314 0.16775 8.45334 0.346779L8.50053 1.17554C8.51073 1.35457 8.66414 1.49085 8.84342 1.48684C10.352 1.45309 11.8482 1.78278 13.2051 2.45013C14.6592 3.1653 15.9039 4.244 16.8185 5.58166C17.7331 6.91933 18.2866 8.47059 18.4254 10.0851C18.5641 11.6996 18.2835 13.3225 17.6106 14.7967C16.9376 16.2708 15.8953 17.5461 14.5846 18.4989C13.2739 19.4517 11.7393 20.0498 10.1294 20.2351C8.51962 20.4204 6.85164 20.2157 5.35871 19.5856C3.96561 18.9977 2.73629 18.0832 1.77352 16.9213C1.65911 16.7832 1.45564 16.7566 1.31369 16.8662L0.694218 17.3444Z" fill="#FFDB00"/>
</svg>
