<svg width="162" height="181" viewBox="0 0 162 181" fill="none" xmlns="http://www.w3.org/2000/svg">
<path d="M1.55659 142.358C0.369006 143.239 0.116965 144.918 1.03252 146.079C10.0376 157.496 21.6916 166.565 35.0005 172.49C49.1253 178.777 64.6349 181.309 80.026 179.84C95.4171 178.371 110.168 172.951 122.848 164.104C135.528 155.258 145.708 143.286 152.4 129.349C159.093 115.411 162.072 99.981 161.047 84.5539C160.023 69.1268 155.03 54.226 146.554 41.2958C138.077 28.3656 126.404 17.8445 112.665 10.7525C99.7204 4.0701 85.3558 0.64553 70.815 0.756285C69.3367 0.767545 68.1837 2.01423 68.239 3.49158L68.4952 10.3306C68.5505 11.8079 69.7933 12.9559 71.2717 12.9515C83.7119 12.9152 95.9927 15.8726 107.07 21.591C118.941 27.7192 129.028 36.8103 136.353 47.9832C143.677 59.1561 147.991 72.0317 148.877 85.3621C149.762 98.6924 147.188 112.025 141.405 124.069C135.622 136.112 126.826 146.457 115.869 154.101C104.912 161.745 92.1662 166.428 78.8669 167.698C65.5677 168.967 51.8514 167.013 39.6464 161.58C28.2574 156.51 18.2708 148.775 10.521 139.043C9.60003 137.887 7.92711 137.635 6.73954 138.515L1.55659 142.358Z" fill="#FFDB00"/>
</svg>
