<svg width="78" height="93" viewBox="0 0 78 93" fill="none" xmlns="http://www.w3.org/2000/svg">
<path d="M64.9889 89.2687C59.9491 94.1765 54.4464 93.4015 49.1494 91.0768C43.5438 88.7005 38.4011 88.5971 32.4869 91.0768C25.0814 94.2798 21.173 93.3499 16.7502 89.2687C-8.34623 63.2837 -4.64347 23.712 23.8472 22.2655C30.7899 22.6271 35.624 26.0884 39.6868 26.3983C45.7552 25.1585 51.5664 21.5939 58.0463 22.0589C65.8118 22.6788 71.6745 25.7784 75.5315 31.3577C59.4862 41.0182 63.2918 62.2505 78 68.1914C75.0687 75.9404 71.263 83.6378 64.9375 89.3204L64.9889 89.2687ZM39.1725 21.9556C38.4011 10.4353 47.7094 0.929883 58.4062 0C59.8976 13.3283 46.3723 23.2471 39.1725 21.9556Z" fill="#202630" fill-opacity="0.8"/>
</svg>
