<svg width="32" height="36" viewBox="0 0 32 36" fill="none" xmlns="http://www.w3.org/2000/svg">
<path d="M30.2262 20.1273L24.5593 23.3459L19.4765 18.2771L24.5998 13.1676L30.2262 16.363C30.5583 16.5515 30.8346 16.825 31.0268 17.1557C31.219 17.4864 31.3203 17.8623 31.3203 18.2452C31.3203 18.628 31.219 19.004 31.0268 19.3346C30.8346 19.6653 30.5583 19.9389 30.2262 20.1273ZM0.321136 2.17084C0.213826 2.43228 0.158797 2.71234 0.159182 2.99509V33.4938C0.159182 33.8087 0.224252 34.1018 0.338488 34.3645L16.4688 18.2756L0.321136 2.17084ZM17.9727 16.7766L22.6838 12.0778L3.37657 1.11296C2.96274 0.874297 2.48075 0.782774 2.00864 0.853204L17.9727 16.7766ZM17.9727 19.7761L2.06648 35.6415C2.49739 35.6937 2.95144 35.6183 3.37657 35.3759L22.6433 24.4343L17.9727 19.7761Z" fill="white"/>
</svg>
